/* XPM */
static char *e22b8856331245f1de2e2fac294dfaadbJdXkvdtu3cbdrnx[] = {
/* columns rows colors chars-per-pixel */
"64 64 130 2 ",
"   c #BD946B",
".  c #C1966D",
"X  c #C3996E",
"o  c #C59C73",
"O  c #C99E75",
"+  c #C59F78",
"@  c #CB9F78",
"#  c #C7A176",
"$  c #CBA176",
"%  c #C6A179",
"&  c #CDA47A",
"*  c #CFA87E",
"=  c #D1A67C",
"-  c #D3A97E",
";  c #CDA781",
":  c #CEA982",
">  c #D2A781",
",  c #D5AB82",
"<  c #D9AE84",
"1  c #D3AE89",
"2  c #D9AF89",
"3  c #D7B086",
"4  c #DBB186",
"5  c #D7B48E",
"6  c #D6B48F",
"7  c #D6B18B",
"8  c #D8B188",
"9  c #D9B289",
"0  c #D8B389",
"q  c #DAB388",
"w  c #D8B28B",
"e  c #DCB089",
"r  c #DCB288",
"t  c #DDB389",
"y  c #DDB18A",
"u  c #DEB28B",
"i  c #DBB489",
"p  c #DAB589",
"a  c #D9B48A",
"s  c #DBB48B",
"d  c #DAB58B",
"f  c #DCB58A",
"g  c #DEB48A",
"h  c #DFB58B",
"j  c #DDB68B",
"k  c #D9B38C",
"l  c #D8B28D",
"z  c #DAB48D",
"x  c #DBB68C",
"c  c #DAB78D",
"v  c #D8B58F",
"b  c #DBB58E",
"n  c #D9B68E",
"m  c #DCB58C",
"M  c #DDB68D",
"N  c #DEB78C",
"B  c #DCB58E",
"V  c #DCB68F",
"C  c #DEB78E",
"Z  c #DDB38A",
"A  c #DFB88D",
"S  c #DEB98D",
"D  c #DFB88F",
"F  c #DFBA8E",
"G  c #DFB88E",
"H  c #D6B594",
"J  c #D9B591",
"K  c #DBB590",
"L  c #DBB793",
"P  c #DDB790",
"I  c #DEB790",
"U  c #DDBA90",
"Y  c #DFBA90",
"T  c #DEBB91",
"R  c #DFBC92",
"E  c #DCBA97",
"W  c #DFB992",
"Q  c #E0B48D",
"!  c #E1B78D",
"~  c #E0B68E",
"^  c #E1B78F",
"/  c #E1B68C",
"(  c #E0B98E",
")  c #E2B88E",
"_  c #E3B98F",
"`  c #E2B98E",
"'  c #E0B690",
"]  c #E1B791",
"[  c #E0B990",
"{  c #E0BB91",
"}  c #E2BB90",
"|  c #E3B993",
" . c #E2BB92",
".. c #E3BC91",
"X. c #E2BD91",
"o. c #E1BC92",
"O. c #E2BD93",
"+. c #E3BE92",
"@. c #E1BE94",
"#. c #E3BE94",
"$. c #E7BD95",
"%. c #E5BE95",
"&. c #E4BF95",
"*. c #E6BF96",
"=. c #E4BC92",
"-. c #E8BE94",
";. c #E0BC9C",
":. c #E3BF99",
">. c #E7C095",
",. c #E6C195",
"<. c #E5C096",
"1. c #E6C197",
"2. c #E6C195",
"3. c #EBC197",
"4. c #E9C297",
"5. c #EAC196",
"6. c #E7C099",
"7. c #E7C298",
"8. c #E7C399",
"9. c #E9C299",
"0. c #EAC398",
"q. c #E8C19A",
"w. c #E9C29B",
"e. c #EDC69F",
"r. c #EEC79E",
"t. c #EBC499",
"y. c #EBCA9F",
"u. c #EECBA1",
"i. c #F0C9A2",
"p. c #F2CBA0",
/* pixels */
"& > & > 1 , 1 B P P z 7 7 J 5 , : : : 1 1 1 1 6 E 1 1 1 - - * * * 3 0 0 3 : , 7 l , 1 ; : J , : z B e < < , > * , & , : 5 6 1 H ",
"> 1 > 1 : & * : ; & % & & & + + & % ; : 1 1 1 6 H ; * @ o O o # # # % % * * ; ; & % K J 6 H ;     o @ & $ O % & + & * : ; L H E ",
"& = = > , & * > K , : ; : % % % o & * , 1 1 : ; * # # o X O # $ * 1 5 0 ; % + % : + & + + : 7 +   o o o o o X o * , : ; % 5 7 5 ",
"O & O @ & o # $ * + + + & & * ; O + + +   % % % $ o # X . X # # # * : 0 7 1 : : & + ; + : 5 z + # # o o $ & & $ : 7 c : 7 5 R U ",
"* > * = > = - , = , = O % O o   . X o o X # $ $ # + O X X @ : * 7 7 7 , & % % % 4 3 &   * * 3 3 c ,.+.F s 4 s ( 0 5 T F <.<.<.S ",
"q ( q f ( / ) ] e _ ] r f } ( e # = 4 r ( -.,.>.} ^ e Q e ^ w.w.q.y.u.8.z s } q.F y.5.f 4.F <.4.c <.5.5.=.f 3 4 T +.s T s 0 0 0 ",
"q U s s 4 , , < < < - @ O & = - & = $ $ = < ` _ ' e < < < = , , = * & & & * & & $ 0 - - 3 - p c p p F B &.&.U z F B - p 3 3 p ` ",
"& , , , = * , , , = = = & = = , X = - = & & $ $ O o o - < = , = , , 4 - & * , s 3 3 & & * 3 _ _ _ =.( q F } } R g / ( p ` s 4.,.",
"- - - - - - - - = > = = < e ^ 2 - - - - - - = X $ $ = - - - - - } , < e , - Q Q - - - - - - Q / - * = g p 4 g _ ( < / Q 4 _ / / ",
"p.3.3.p.3.3.3.3.( ] ( _ } ^ ] ( - -.3.- 3.3.-.- - ` - ` ` ` - g & O < } _ / / Q _ _ _ _ / Q / Q ` s p / ,.,.` / / - - < - _ ,.3.",
"-.- - - - - -.- < r < r r < r < 3.- -.- - - - - ` - ` ` - - - - B 4 4 , = , 4 < - 4 4 / Q < < - & 3 _ / r f _ _ f < 4 < - 3 p g ",
"- - - - - 3.- - , - = , < - - - - - - - - - - - - - - - - - - - 4 4 < , = - - , = - - - 4 - - - # = - = = - - - = = - < - 3 - - ",
"_ - - - - -.- - ) - - - , = = = - - - - $ $ - - = $ = = = $ = = $ = - = - < < < / r - - - - 4 < = & = = = = = = & & = $ & = & - ",
"_ - _ -.- -.- -.- ) - - & o & = - - - - $ $ $ - - - = = $ = $ $ $ = = & = = , r r < = = & = - - = & = = - - = = $ $ & o # = * 3 ",
">.- - -.- - - - - ) / - - - Q - - -.- _ - - - / - - = $ $ $ $ X . @ $ & = - - < - < = & & $ - - 4 - & - < - = $ O = - = - 4 4 p ",
"3.3.3._ -.- - - _ - - - / / / Q - - - - - - - - - - = = = $ $ X X o o O $ $ & < = - - $ O O - - = - / _ / - - - < / / - g / p ,.",
"- - - - _ _ ) ` _ / < - - / ( g 4 < 4 - = - , < - - - - - - - - - $ = = = = = - - = = = $ = - - < 4 - - - = = - - = = - - - - / ",
"` 5.>.- ) - - ` g - - - = - - - - - < = $ - , = $ - - - $ = - - - - - - $ & & & $ $ X X O - 4 - - = = = = = - t - - = & - - - - ",
"5.3.3.>._ _ 5.` - - - r r g g p = & & - - - - = $ - / ,.,.S S ,.( - - O . & - - - - - - = - 4 3 - - Q / p p 3 - - - = = p ,.0.0.",
"- ! - 5.5.t.3.5._ / _ >.>.3.0.0.-./ / 5.-.) / / >.,.- - - = - - ,.,.,.,.- ,.=.=.5.5.>.>./ / ( ( p._ _ 5.<.,.4.,.>.>.! / ,.,.,.,.",
"( e < r ) _ ) - -._ / / j ` _ 4 / p ` / Q r r - = - - = & & - / - - S - , f ( =.5.- - ,._ =.5.0.>.>.r.p.q.5.,.F B &.@.@.,.y.y.8.",
"f e < Q ) - ! _ < 4 - - - t t - < 4 g f r / / r t t t ` ! / - / - = - ,.( ^ r r / - - ` ^ Q ( 5.t.>.} f , , s F } | P l S S p 0 ",
"t.-.( Q / g / - 4 < 4 4 t _ _ / 4 - - p 3 4 / ( ` - = - - / - ! - = - ( , < 4 g - - N ` e - - < - 4 < < 7 7 4 z :.:.U } T X.p p ",
"*.} < , r -./ - - - 4 / 4 4 / / p p 3 * & 3 p - - - - - - & = - - - / - , = & = * - 4 - = = - = 4 4 < - q q 3 s 5 5 5 z +.c 0 0 ",
"u B < 2 - 4 - / Q - Q - / = - - r - @ O O & = - = = = - - = = - - = = - - = = = - - < - = & = = - - = - < < - f > = = = < f < ^ ",
"u u < < - 4 Q - - = - = - - - = = $ O o o X O $ = & & & = - - - t t 4 - < - - = O O & & $ & = = & & o = 4 / < , e , < , , 4 < ( ",
"Q / e e - Q - - - - = $ - - - - $ O O o # o $ & $ = = = - - - - = = $ $ $ & O X $ @ $ $ O $ $ O $ = o = = - $ $ = & & & & , , f ",
"- < < < - < - - - $ - $ Q - / - < = & = = 4 4 4 - 4 4 / / ` / p t t 4 - - < < - < - - - & $ $ O O O o = = = $ & & O & > : 3 s s ",
"/ Q 4 < < , - - - - - - _ ) _ -.-./ 4 4 p / ( / -.-.q.,.=.4.8.8.S ,.,.S _ ,._ F r r r r < - - $ - O X < 4 4 = = > > 2 F c s F z ",
"_ r B e ^ / ^ f Q - / / ) - / / _ _ _ / / ( ( / ( -.&.=.F F X.` S ,.,.,._ _ ` S / _ _ _ / Q Q - < = = / p 3 - g 4 ( ,.8.( s F +.",
"q , 1 q 5.q.q.5._ 3.3._ ) - _ / < 4 r 4 4 r g g , < 2 u 3 , - - * - - 3 - - 3 * $ $ - - & & $ o - = - / 3 3 F 8.U 8.q.4.} 4 } $.",
"B , , 1 } q B , - - - - = $ = = = & & $ = = - = < 1 , , < - 3 4 - * & $ & = - - @ = - - = < < - =.< - < & - s <.<.w.c z e 1 e ' ",
"= = = = - = - - - - - - - / - - - - - - - - = $ - = = = = $ & - - - - / = - - / - - - - 3.- - - -.3.- = - $ - $ = - - - $ - - - ",
"- -.- -.- - _ - - - - - - - - - = - - - = - $ - = $ $ = = = - 4 - - - ! - - ` - - -.3.- - - - - - - - - - - - - -.- -.- - ` _ - ",
"-.- _ - -.- _ / / - - - = = & & - - - - - - - - - = - / - / / / t t - - $ = - - - - - - 3.- - - - -.- 3.-.- -.- -.-.-./ - -.-.` ",
"-.- - -.-.- -._ -.- - - = = = @ - - - - = = = - - - - / / - < - - - - - = = - - - - - - - 3.3.- - - - -.-.- - - - / -./ -.-.` - ",
"- / - -.- Q / - - - - - = = = = $ = = = - - - $ - - - ) < < = = - - - - - - - - - - - - - - - - - - - -.- - - - - g -.-.` ` 4 - ",
"- - - - = - - = - = = - @ = = = - - - - - / ! Q - - - - r r r r - - = - - - ) - = - - - - - - = - - - - - - - - - - g ` - ` ` - ",
"- e - y - - - - - = = = = @ = = - / -.- Q - _ _ - - = = / / < / - _ - - - - = $ - - = = - / - - - = - - -.- - - - - - - - - g - ",
"y -.y - - e - e - = = - = = , 1 - - / / -._ 3._ _ 3.- - =._ - 4 5.3.>.- ` - - - - - - = - - Q 4 - - - - - - - - - = - - - / / - ",
"- - - Q - - - _ r < - @ = , > = / 3.-./ -.' &.P +.q.^ , 4 = ( r - ) - - < r r - = = = & = - < < _ >.` - - >.- - $ - - - - - S S ",
"y y - - - Q - - < - = , < 1 , < -._ -._ < e $.2 e &.q ^ ^ f / , _ 5.5.3.( 5.-._ = = - - - - < / - - - - - - ` - - $ - - - - - ` ",
"- - y - - - - Q Q < < / $.} B ' - / = - 1 } q.*.] 3.B -.=.=.p 4 / ! _ ` ( } ( l < - - Q 4 = = 4 - - - - - - - ` - p p - - S 5.5.",
"-.-.-._ _ - - / Q Q < < ^ -.*.@./ / - ) q.r.B q Q ^ , e ( ( =.,.>._ >._ } ' f q - = = Q ` _ / / 5.5.` - 3.5.- ` ` 0.5.` F 5.0.0.",
"-.-.-._ / - _ _ 4 Q - - Q &.6.*.w.} } $.} *.} , ^ e , = 4 4 _ -.>.,.<.<.<.<.} U g 4 4 4 p g / 4 _ ) - >.3.` - ` 3.5.3.p.,.` ,.,.",
"_ _ - _ / _ - _ / r < Q ^ B l | | u u < > q 7 z f q q > 4 4 / / ` / ,.<.+.<.} U 4 / _ _ / =.t.3.5.5._ ` ` ` ` ` S >.5.3.` F S S ",
"Q - - _ _ _ - _ g 4 < r e , > > > 2 B < c 4 + & * * - = 3 g / Q j S ` X.F F } F g g g 4 4 < g _ >.5.- - - - - - - 5.` - - 5.5.` ",
"_ _ _ _ - - - - - f / e B ' 2 , Q 1 B < F ,.` = s F 3 3 - g 4 / - 4 3 - , p s 3 r < - 4 r / / -.5.- - >.` 5.3.` >.>.>.3.3.` >.5.",
"Q _ -./ Q - - _ - -._ Q _ -.Q e 2 , 2 Q _ =./ ( ( s ,./ e -.-.-.-._ g / / / / g / _ >._ _ / / / - 3.5._ _ >.! ! t = = - F p p p ",
"- / Q / _ _ _ _ u Q Q Q Q _ Q u Q < 2 < < e < 4 , , p - - y ) ) ( g & - / ` >./ < - < 4 g - = & - - - = & = = = $ & & - 3 N p 4 ",
"- _ - - - - _ - - y - e , e < < * + @ & = = $ & 3 = , = O = - < - - - - - - - = 4 - = 4 g 4 - 4 - - - - t ! _ ! ,.0.5.` ` ,.` / ",
"_ - - - Q - - Q _ Q Q - > > = = , > 3 q / ^ f +./ / f < - - - - , ( 5.5.,.` =.>.` ( ` ,.,._ ,.0.3.3.3.3./ ! - - - - - t 4 - 4 j ",
"- - - - _ - _ - ] Q 2 e e > > > * & 1 , 3 4 4 g 4 4 < - < - - < 3 3 4 p q B ( ( ( ,.0.,.` p / g - >.- / - _ ! ! / - - - 4 4 4 4 ",
"- - = = - - - - , > @ > = @ @ @ + o + O X o X $ o $ o $ & O O = - = & X O = & & = = = $ & = = * $ = - - = $ $ X o O o X o - r 4 ",
"= O X . $ = $ - @ o . o o . . X + X o X X o X O X $ X o = & & = $ $ & X o O @ = $ O o X X & = & $ = - - - = X $ = - = O & - 4 4 ",
"= . O X = - $ - , @ . o @ o X @ & O $ @ $ = o o X o   $ - - - 4 - = - # o $ @ = - , < < < = = = - $ $ - - - - - = = & & & = - / ",
"4 = & = = - - , 2 > > , 1 = @ @ , > > = = $ $ - - - - - - = - = - - - - - - - - = = - - - = - - = = = , 4 4 ( _ 4 / 4 - 4 g g _ ",
"=.f 4 < r r _ -.| 2 , < e ^ Q Q , , , , 4 4 4 r 3._ -.- & O - r - - - - - - - - < r / / ( _ _ _ f g g g 4 4 / _ / ) p j / / ` >.",
"_ _ / _ =.-.-.5.*.' ^ ^ | } e < 4 e r Q } =./ r / / _ -._ / / / ) / ) - - -.-.- _ >.3.-.-.>.-./ ( _ / / f e / >./ -.,.` ,.,.,.8.",
"< r / _ / / / / | | ' ^ e < 2 e e ^ ^ ] ] _ r r / - Q / Q Q / ^ ) ) ) / - 3.3.- 4 / _ / / / / - 4 r r r r f / _ / _ / g p S S ,.",
"- < r r < - < r ^ ' -.] ' ' ] &.] ] ] -.] r , Q / - 4 - = & - 4 - - - - - - - - = > , , - , , = = - , - - - 4 4 2 , , , - 4 , , ",
"< r ^ ( / r r / < Q ( ] -.3.-.] | | ] 3.=.< < =.- - < _ f r < , - - - - - - - - = , < , , = , = = - 3 - - < < 4 2 , , < 4 g f , ",
"4 / _ _ _ ^ / e ) Q e , , u } ' ' ' Q Q ^ 2 2 ] Q , < Q ` p t t ( - - - - - - - , , 1 2 q e e ^ < < 4 < < r Q Q u < 5 q q ^ +.B ",
"4 < < < r / r e 2 Q Q 1 * : , 4 2 2 > , , , > , < , < < 4 - - ! p - - >.- _ - - u 2 , l u q 2 2 ( ^ f 4 e e < 2 2 , , , , s +.} "
};
