/* XPM */
static char *cee114ff491542c8c2a36ff4b477bcf8B6dSNM2Z9mGhXUw1[] = {
/* columns rows colors chars-per-pixel */
"64 64 164 2 ",
"   c None",
".  c #010101",
"X  c #0B0000",
"o  c #120000",
"O  c #1A0500",
"+  c #1E0E00",
"@  c #1E1204",
"#  c #141414",
"$  c #181715",
"%  c #1A1916",
"&  c #1D1C1A",
"*  c #221402",
"=  c #281600",
"-  c #271907",
";  c #271909",
":  c #2B1F15",
">  c #211F1C",
",  c #2D2316",
"<  c #24211D",
"1  c #2D251D",
"2  c #31291D",
"3  c #382B1E",
"4  c #252321",
"5  c #292522",
"6  c #2F2822",
"7  c #2D2A28",
"8  c #302720",
"9  c #352B23",
"0  c #392E26",
"q  c #302B28",
"w  c #382F28",
"e  c #3A3026",
"r  c #363129",
"t  c #3B342B",
"y  c #3F382F",
"u  c #373635",
"i  c #383635",
"p  c #3D3834",
"a  c #3D3D3D",
"s  c #402D0D",
"d  c #41362C",
"f  c #44392F",
"g  c #443B32",
"h  c #483E33",
"j  c #423E3C",
"k  c #45413E",
"l  c #4B433D",
"z  c #554536",
"x  c #584636",
"c  c #594836",
"v  c #50473B",
"b  c #5C4C3B",
"n  c #65533E",
"m  c #454443",
"M  c #494644",
"N  c #4B4947",
"B  c #4C4B49",
"V  c #534B43",
"C  c #514E4B",
"Z  c #5E5142",
"A  c #54514D",
"S  c #5C534B",
"D  c #565552",
"F  c #5A5652",
"G  c #5E5B57",
"H  c #5C5C5C",
"J  c #655544",
"K  c #6A5946",
"L  c #665849",
"P  c #6C5C4B",
"I  c #705F4D",
"U  c #655E56",
"Y  c #605F5D",
"T  c #6F604F",
"R  c #71604F",
"E  c #6F6152",
"W  c #62615E",
"Q  c #756453",
"!  c #786755",
"~  c #7A6956",
"^  c #77695A",
"/  c #7D6C5A",
"(  c #656462",
")  c #696664",
"_  c #6D6B67",
"`  c #6E6D6B",
"'  c #716E6B",
"]  c #7F7160",
"[  c gray44",
"{  c #806F5C",
"}  c #82715E",
"|  c #857462",
" . c #8F7E6C",
".. c #93816C",
"X. c #98866F",
"o. c #948472",
"O. c #988772",
"+. c #9C8A75",
"@. c #9E8D79",
"#. c #A08E77",
"$. c #A18F7A",
"%. c #A5937D",
"&. c #A8957F",
"*. c #988E81",
"=. c #9A9084",
"-. c #A69580",
";. c #A99681",
":. c #AD9A85",
">. c #A1978A",
",. c #A39A8E",
"<. c #AE9D88",
"1. c #B09D87",
"2. c #B19F89",
"3. c #A99E91",
"4. c #B4A28C",
"5. c #ABA193",
"6. c #B7A690",
"7. c #B9A791",
"8. c #B8A690",
"9. c #BBA993",
"0. c #BCAA94",
"q. c #BFAE98",
"w. c #C2B39D",
"e. c #C8BBA6",
"r. c #CCBEA9",
"t. c #CBBEA9",
"y. c #CFC0AA",
"u. c #CFC1AC",
"i. c #CFC2AD",
"p. c #CEC1AC",
"a. c #D1C3AE",
"s. c #D1C4B0",
"d. c #D5C6B1",
"f. c #D6C7B1",
"g. c #D4C6B1",
"h. c #D5C8B3",
"j. c #D7C9B3",
"k. c #D7C9B3",
"l. c #DACBB5",
"z. c #D9CAB4",
"x. c #DBCCB6",
"c. c #DBCDB7",
"v. c #DCCDB7",
"b. c #DACBB6",
"n. c #DCCEB8",
"m. c #DDCEB8",
"M. c #DECFB9",
"N. c #DECFBA",
"B. c #DDCEB9",
"V. c #DFD0BA",
"C. c #DFD1BB",
"Z. c #DFD0BB",
"A. c #E0D1BB",
"S. c #E1D3BD",
"D. c #E3D4BD",
"F. c #E3D5BF",
"G. c #E2D4BE",
"H. c #E2D4BE",
"J. c #E4D6C0",
"K. c #E5D7C1",
"L. c #E4D6C0",
"P. c #E7D9C2",
"I. c #E6D8C2",
"U. c #E8DAC3",
/* pixels */
"                                                        N < < N                                                                 ",
"                                    W Y             W A @.>.>.=.A H                                                             ",
"                                  ) r.r.F C C C D C $.y.4.^ V ,.=., G                                                           ",
"                            H a B ;.I.N.:.a.-.%.r.;.:.0.j.;.v h N d 1 a H                                                       ",
"                          G O = ~ f.8.:.4.N.2.} <.2.:.:.4.A.j.^ 2 y y 2 * H                                                     ",
"                        G X w L ;.1.:.:.:.:.-.! ! ;.<.;.1.A.I.j.| e t f y 1 a H                                                 ",
"                    Y j : 9 w / ;.{ ;.2.;.{ ~ ! ! :.4.1.4.A.F.I.h.^ t y y y , @ [                                               ",
"                  H n J w 1 R ;.-.{ 2.l.2.{ R ! } :.x.v.8.v.F.G.K.h.v r t y 2 m                                                 ",
"                  m J h 8 9 ~ &.| :.z.J.z.;.! ! %.;.4.n.b.8.c.K.F.F.:.k r f , B                                                 ",
"                ` J y 1 w P / ;.:.;.:.2.4.:.~ ! } ;.{ ;.<.-.6.N.F.F.l./ e f , a                                                 ",
"                  M - 9 9 Q ~ %.-.g M $.:.-.{ $.} $.h > 4 V $.4.V.F.A.:.k t * H                                                 ",
"                  a ; w w I I h h % > M ~ ~ { $./ L 5 & & 4 V P :.V.C.:.! 2 H                                                   ",
"                  H X * O - 9 # # % $ 5 R R R ! I 8 > k l j 4 4 T 2.Z.6.@.B                                                     ",
"                    H a N m $ & > # > T R d 0 0 0 9 w j M m l j l 2.C.C.:.N                                                     ",
"                            m . > # d P d 5 & & % 0 K g l 5 7 j S k.K.U.h.G                                                     ",
"                            m . & 5 K d 8 > & > w > d P R k k l :.C.K.C.F.p.(                                                   ",
"                          [ 7 & $ j P w & > & < t t & y Q P T } x.I.G.G.I.x.B                                                   ",
"                            m . 4 g w > % & t t t t % t T T ! <.V.F.G.G.I.a.G                                                   ",
"                            M + 6 & & & > > r y t y 5 < y r Q %.4.V.G.I.V.q.e.'                                                 ",
"                          H J f 1 & & > r r 4 w f L Z < % % e ! <.S.G.G.G.V.I.p._                                               ",
"                          M P R 8 & & < t y w < t S h & > > < J <.S.G.I.G.I.G.I.p.(                                             ",
"                        W O.{ R 9 % > & > y t w 5 t r < r t r t ;.G.G.V.G.G.G.I.x.F                                             ",
"                        B #.} P 9 & r & & t t 4 r > > r y y t 9 <.G.G.q.C.I.G.G.K.p.)                                           ",
"                        A #.} R 9 . r < & < r < r > % < t t w U j.G.V.V.G.F.G.G.I.x.N                                           ",
"                        B %.;.~ r < r & % < r < & > < & 5 # S s.I.V.q.C.I.G.G.G.I.j.G                                           ",
"                        B %.4.%.! J V y > # # & & & # % # p 5.G.G.G.C.G.G.G.G.K.G.F.i.`                                         ",
"                        M ;.b.8.;.{ %.%.~ l r 5 & < g p S ;.V.G.G.G.I.G.G.G.G.K.G.F.U.p.(                                       ",
"                        B ;.S.S.n.4.:.<.;.-.$.Q g E 3.*.;.n.K.G.K.G.G.G.K.K.G.G.G.G.I.x.A                                       ",
"                        B %.S.K.K.n.2.:.:.4.4.1.;.<.f.4.4.G.K.G.K.G.G.G.G.G.G.K.F.F.F.C.%.W                                     ",
"                        m ! n.K.F.S.4.1.4.x.A.A.V.4.9.n.S.G.G.J.G.G.K.K.G.K.G.G.F.F.K.V.4.O.W                                   ",
"                        M P 1.n.K.S.A.V.S.F.K.K.F.A.V.G.K.G.J.G.G.K.G.G.K.G.K.G.F.F.G.G.V.;.N                                   ",
"                        B P ! | j.K.F.K.K.F.S.F.F.K.K.G.G.J.G.J.G.G.K.G.G.G.K.G.F.F.G.I.V.4.+.W                                 ",
"                        m K ~ P ] b.K.F.S.S.S.K.J.J.J.J.J.S.S.J.K.G.G.K.G.G.G.K.F.F.F.K.n.8.1.@.Y                               ",
"                        Y J ~ ! Q %.n.K.K.J.K.S.C.J.S.S.J.J.J.J.K.G.G.K.G.K.G.G.F.F.F.F.K.z.9.b.E m A B W                       ",
"                          C O.} Q ~ 2.n.K.S.K.J.J.J.J.J.J.S.S.J.G.G.G.G.F.F.K.K.K.G.G.K.x.8.n.n.%.+.&.a.%.)                     ",
"                          B %.:.! ~ ;.4.n.K.S.K.J.J.J.S.J.J.J.J.G.K.K.G.F.G.F.V.G.S.K.S.8.4.v.2.@.1.9.G.F.r.)                   ",
"                          C %.:.! ~ %.@.2.n.K.S.C.J.S.J.J.S.J.S.J.G.J.G.F.I.x.q.n.K.K.n.V.b.:.~ %.4.z.G.I.b.B                   ",
"                        W +.1.;.~ Q { %.+.2.n.K.J.J.J.J.J.J.J.J.G.J.G.G.F.x.0.x.J.S.b.q.A.4.! %.:.:.9.v.I.j.H                   ",
"                        k %.4.<./ / %.| ! / <.n.K.C.N.J.K.S.J.J.J.G.G.I.C.0.x.I.n.4.6.V.x.%.&.1.:.8.z.0.x.K.r.(                 ",
"                        Y $.V.n.2.:.;.$./ R { 6.c.4.4.c.N.J.J.S.G.J.G.J.G.V.G.n.4.4.n.C.;.;.1.:.2.v.K.b.8.G.n.N                 ",
"                          F j.I.S.x./ { -.| ;.f.4.;.1.1.2.V.L.J.J.J.G.J.K.V.4.4.4.V.G.4.&.;.1.:.4.A.K.S.4.A.p.(                 ",
"                          D j.I.K.S.;.~ ;.;.:.2.;.1.2.;.~ :.N.A.G.G.G.J.V.4.4.x.C.F.V.;.~ } ;.:.2.A.K.n.9.f.W                   ",
"                          D j.K.J.S.:.} :.4.2.@.:.1.1.;.Q S ;.6.V.I.G.J.V.6.Z.I.K.G.4./ ! %.1.:.2.A.K.n.9.a.C                   ",
"                        G E n.K.K.n.$.:.n.S.b.-.;.:.1.;.P b ~ 2.C.G.J.G.G.C.G.C.J.j.@.Q { &.:.:.2.A.K.n.4.@.(                   ",
"                        a ! N.J.K.n.~ ;.n.I.S.2.;.1.:.;.J x } c.K.G.K.C.F.K.G.K.x.%.! } %./ / ;.4.A.K.S.:.B                     ",
"                        m Q N.L.L.z.l Q 4.n.n.2.;.<.;.{ b b  .N.K.G.C.i.C.K.V.Z.2./ ! $.} R ! <.n.K.G.I.s.D                     ",
"                        m Q n.I.V.:.0 ~ ;.2.4.-.} ;.;.L b J 1.A.F.F.G.i.Z.Z.4.2.:.%.} ! ! ! ! :.S.K.S.I.j.D                     ",
"                        m ! B.I.n.Q d ;.2.:.;.Q J ~ L d x ~ b.L.G.G.V.t.4.2.:.:.<.<.%.! ! R ~ 4.C.G.G.I.f.D                     ",
"                        m ! n.J.k.h Q n.N.2.-.P w d d z b o.A.K.F.V.;.1.:.:.:.:.:.%./ ! ! ! :.v.F.G.G.P.b.C                     ",
"                        k ~ C.S.2.0 / n.N.4.;.! w P P 3 / z.L.S.F.x.%.&.:.:.1.1.:.{ R ! ! ! 1.A.K.G.G.K.p.)                     ",
"                      H R :.n.J.$.t Q :.2.;.;.~ 9 t w t :.F.F.L.V.<.1.4.2.2.:.1.;.~ R ! Q ! <.A.F.G.I.j.H                       ",
"                      M +.:.4.s.J , 0 ~ -.{ ! Q 0 8 1 R z.L.F.L.F.C.A.v.A.v.4.1.;.~ R ! ! ! 1.A.K.S.I.b.B                       ",
"                  W j J P L Q -.&.~ f / ;.! R ! d 8 0 } V.L.F.A.C.G.V.0.v.F.z.1.;./ Q ! ! ! :.A.F.G.G.y.(                       ",
"                  t 3 p 8 2 9 I &.&.&.;.;./ ! R 0 9 K ;.A.K.A.4.-.| ;.;.1.4.1.4.:./ R Q R ! <.A.G.V.4.A                         ",
"                  ( a @ 1 6 w L } 2.4.1.<.;.%.! 9 0 Q 1.A.L.z./ d R / ! ~ &.:.$.#.I ~ Q h ! 1.A.V.w.w.(                         ",
"                      G X + + Z +.$.#.%.1.4.1./ 9 0 ! 1.A.F.2.9 * K P K K ! O.S B B J P R ! 1.A.U.e.'                           ",
"                        H a m N C B B A +.%.%.O.h K %.1.G.G.%.m M N N N N m H       H m R ! 1.A.p.'                             ",
"                                        W M A B Z / ;.4.V.j.F                           M K 4.a.Y                               ",
"                                                B %.4.:.9.y.D                           M P 1.%.N                               ",
"                                                m X.%.;.<.-.N                         H J { :.%.N                               ",
"                                                Y m C K ! ..(                       Y J | -.<.+.W                               ",
"                                                      H i (                         i n +.2.%.A                                 ",
"                                                                                    ( a A $.+.N                                 ",
"                                                                                          B . M                                 "
};
