/* XPM */
static char *_1fb4a6607694406cce8a206a6bae4c83b0aAndzTt4w7ltH[] = {
/* columns rows colors chars-per-pixel */
"64 64 210 2 ",
"   c None",
".  c #000000",
"X  c #06030B",
"o  c #000012",
"O  c #00001F",
"+  c #171714",
"@  c #151008",
"#  c #271906",
"$  c #241D16",
"%  c #2F2007",
"&  c #2B2419",
"*  c #3F361D",
"=  c #001821",
"-  c #002237",
";  c #112E38",
":  c #302E21",
">  c #302E26",
",  c #7B091D",
"<  c #42381F",
"1  c #6C251D",
"2  c #473E27",
"3  c #403E33",
"4  c #7C2421",
"5  c #46412D",
"6  c #564620",
"7  c #4E4835",
"8  c #574E35",
"9  c #58533E",
"0  c #51503F",
"q  c #6A5634",
"w  c #B10024",
"e  c #B61D26",
"r  c #892B27",
"t  c #B72D2A",
"y  c #B53C2B",
"u  c #BF3A2B",
"i  c #B63729",
"p  c #BD2A32",
"a  c #BE3B33",
"s  c #AE2427",
"d  c #C90F23",
"f  c #D20021",
"g  c #C21F33",
"h  c #CA1327",
"j  c #C5382A",
"k  c #CC2F32",
"l  c #DA2237",
"z  c #D52B37",
"x  c #C83D33",
"c  c #C83532",
"v  c #D33C36",
"b  c #D83C39",
"n  c #C7232B",
"m  c #975A3A",
"M  c #BA4834",
"N  c #B74B2C",
"B  c #8C7E3F",
"V  c #A7733F",
"C  c #C3472E",
"Z  c #C64332",
"A  c #CD4333",
"S  c #D44634",
"D  c #D84538",
"F  c #DB5C3A",
"G  c #E0423C",
"H  c #C0782E",
"J  c #CB6E33",
"K  c #D4643D",
"L  c #E2603F",
"P  c #937A4E",
"I  c #987E4B",
"U  c #937753",
"Y  c #886E49",
"T  c #A87A5D",
"R  c #DA4D42",
"E  c #D64544",
"W  c #FF5854",
"Q  c #E65645",
"!  c #DB6951",
"~  c #F7604F",
"^  c #EF754E",
"/  c #FA7A4E",
"(  c #E57F5E",
")  c #FC7C54",
"_  c #FD7758",
"`  c #F16B4F",
"'  c #8F883C",
"]  c #9F8233",
"[  c #D7842F",
"{  c #CA803D",
"}  c #D2863C",
"|  c #D78C38",
" . c #FFCC3E",
".. c #9D8C52",
"X. c #988E4F",
"o. c #A68C4C",
"O. c #AC8D59",
"+. c #A39654",
"@. c #B2935D",
"#. c #B9995F",
"$. c #A49948",
"%. c #918D6C",
"&. c #989568",
"*. c #8E8F70",
"=. c #969676",
"-. c #869578",
";. c #A59D68",
":. c #B69864",
">. c #A1A07D",
",. c #D38B43",
"<. c #CF8C51",
"1. c #DC9951",
"2. c #C9934E",
"3. c #FB834D",
"4. c #FC8D4C",
"5. c #E59546",
"6. c #E98151",
"7. c #FD8859",
"8. c #FC9152",
"9. c #FD9951",
"0. c #F09850",
"q. c #CFA84F",
"w. c #DCB65A",
"e. c #D4AB42",
"r. c #FFAA4D",
"t. c #F9A64B",
"y. c #E8AC57",
"u. c #FCAB54",
"i. c #F8A652",
"p. c #FEB55A",
"a. c #FDB959",
"s. c #F4B74B",
"d. c #D49469",
"f. c #E48667",
"g. c #E59C67",
"h. c #FA8563",
"j. c #DCA670",
"k. c #D5BF7C",
"l. c #D0AB6A",
"z. c #FAAA6D",
"x. c #E6BA69",
"c. c #EFAB79",
"v. c #F2A975",
"b. c #FAA67B",
"n. c #F9B679",
"m. c #EDBB6D",
"M. c #FBC546",
"N. c #FCCB47",
"B. c #FBC64A",
"V. c #FECC4B",
"C. c #FED24C",
"Z. c #FDCD50",
"A. c #FDCE5D",
"S. c #FFC550",
"D. c #FED35D",
"F. c #FCDA5A",
"G. c #ECCB61",
"H. c #FCCC63",
"J. c #FECD6A",
"K. c #FDC768",
"L. c #FCD263",
"P. c #FDD76C",
"I. c #FBDB69",
"U. c #E2C171",
"Y. c #E9C773",
"T. c #FDC674",
"R. c #FFC07F",
"E. c #FCD574",
"W. c #FFD971",
"Q. c #FCD67B",
"!. c #FDDA7B",
"~. c #F5D571",
"^. c #FEEC6F",
"/. c #FEE667",
"(. c #FFF26D",
"). c #F7E172",
"_. c #FEEC72",
"`. c #F3E17B",
"'. c #FFE17B",
"]. c #FFF872",
"[. c #CBBD86",
"{. c #FDB48A",
"}. c #F5BB88",
"|. c #D6C283",
" X c #D5C48C",
".X c #DBC98E",
"XX c #D4CB94",
"oX c #FCC58C",
"OX c #F8CA8B",
"+X c #FED687",
"@X c #FAD48B",
"#X c #F6D789",
"$X c #FED291",
"%X c #FDDD92",
"&X c #FDE286",
"*X c #FCEC85",
"=X c #FAED8E",
"-X c #F3E983",
";X c #FDF18A",
":X c #FEE595",
">X c #FDE49B",
",X c #FDEA9B",
"<X c #FBEC95",
"1X c #FCF29B",
"2X c #FEFA9D",
"3X c #FDF697",
"4X c #FFECA2",
"5X c #FFFBA1",
"6X c #FFFFAF",
"7X c #FFFFBB",
/* pixels */
"                                                                                                                                ",
"                                                                                                                                ",
"                                                                                                                                ",
"                                                                                                                                ",
"                                                                                                                                ",
"                                                                                                                                ",
"                                                                                                                                ",
"                                                                                                                                ",
"                                                                                                                                ",
"                                                                                                                                ",
"                                                                                                                                ",
"                                                                                                                                ",
"                                                                                                                                ",
"                                                                                                                                ",
"                                                                                                                                ",
"                                                                                                                                ",
"                                                          0 9 6 8                                                               ",
"                                                      7 % k.4X~.&X;.                                                            ",
"                                                    >  X!.Z.&X,XJ.I.X.                                                          ",
"                                                0 * [.,X>X:XJ.N.3.3.V                                                           ",
"                                            7 # |.4XP.&XE.N.8._ _ 7.W.$.                                                        ",
"                                        9 3  XP.Q.,XK.M.4.) P.;X$X}.~.~...                                                      ",
"                                      o |.:X>XW. .Z.3._ 7.@X2X:X( D b c.$XU                                                     ",
"                                  2 &  X!. .&XE. .9._ @X2X%XoXg.D t k K b.T                                                     ",
"                                ; e.!.>X<XH.N.4.~ / OX2X1X2Xg.h Z b y Z l m.+.                                                  ",
"                              . .X'.V.&XP.3.! F c j v.,X*X~.<.w u x x v k c.!.P                                                 ",
"                              . [.<X:XP.4.W Q x x K S n.oXh.n.d.s s u t f.{.@X:.                                                ",
"                                O q.F.C.4.3.! e c Z z OX:X{.oX1Xj.x M 6.7.#X1X5X&.                                              ",
"                                . x.'.D.V.Z.} y M J }.*X*X,X<X<X1X@XOXz.3.{.{.%X;.                                              ",
"                                . Y Y.!.E.!.D.B.B.F.^.^.1.R ! E x.@X<X`.G.<X$X( b r                                             ",
"                                  . I O.U.!.Q.!.D.V.C.5.S j n t d OX-X).I.1Xj.f a x 4                                           ",
"                                    & . P #.O.U.!.!.D.V.V.} y y c l #X5X1X5Xx.y t u 1                                           ",
"                                        $ & . P @.x.!.!.L.B.Z.| N j #X3X2X*XR.! N C z ,                                         ",
"                                              $ . P :.U.!.p.K.H. .M./.(.=X@Xz.) m.2.D m                                         ",
"                                                  & X P :.1.r.u.r.B.Z./.y.D M Z L y.-X-X..                                      ",
"                                                      X # . ,.p.i.K.Q.A.V.} y x s g s.n.Q.'                                     ",
"                                                          . [ ,X X5.p.t.T.A.V.,.y N ^ S._.+.                                    ",
"                                                          . | >X-.H u.u.u.r.T.H.B.B.F.;X3X3X&.                                  ",
"                                                          . x.l.  . ,.K.p.r.i.t.T.L.N.^._.].$.                                  ",
"                                                          . XX7X%.  = 5.K.P.I Y :.O.m.+XH.C.]                                   ",
"                                                          . w.6X>.  o { L.+.  : & o I :.O.#.q                                   ",
"                                                          . q.4X*.    . x.o.        @ @ + +                                     ",
"                                                            < 5       . w.O.                                                    ",
"                                                                      - U.o.                                                    ",
"                                                                    . XX7X&.                                                    ",
"                                                                    . w.6X=.                                                    ",
"                                                                    . q.4X*.                                                    ",
"                                                                      < 3                                                       ",
"                                                                                                                                ",
"                                                                                                                                ",
"                                                                                                                                ",
"                                                                                                                                ",
"                                                                                                                                ",
"                                                                                                                                ",
"                                                                                                                                ",
"                                                                                                                                ",
"                                                                                                                                ",
"                                                                                                                                ",
"                                                                                                                                ",
"                                                                                                                                ",
"                                                                                                                                ",
"                                                                                                                                ",
"                                                                                                                                ",
"                                                                                                                                "
};
