/* XPM */
static char *d1b837e32b024a8df9903fdadac231fdofwv2Wvf1YcEqNbE[] = {
/* columns rows colors chars-per-pixel */
"64 64 229 2 ",
"   c None",
".  c #2B010F",
"X  c #2E0110",
"o  c #330212",
"O  c #3D0316",
"+  c #460418",
"@  c #560216",
"#  c #73000E",
"$  c #7D010E",
"%  c #640111",
"&  c #6B0112",
"*  c #730010",
"=  c #7D0014",
"-  c #75011D",
";  c #790019",
":  c #65010F",
">  c #480A24",
",  c #510F2A",
"<  c #53122C",
"1  c #4C162A",
"2  c #760020",
"3  c #6B1E37",
"4  c #67283D",
"5  c #6B2D42",
"6  c #733549",
"7  c #793C4F",
"8  c #74364A",
"9  c #7A3E51",
"0  c #702F45",
"q  c #7D4253",
"w  c #830014",
"e  c #8C0E1D",
"r  c #850316",
"t  c #8E0816",
"y  c #A90819",
"u  c #B90A19",
"i  c #8C1021",
"p  c #951A24",
"a  c #951B26",
"s  c #8F0C2F",
"d  c #AD092C",
"f  c #B40925",
"g  c #B90A22",
"h  c #BD0C2C",
"j  c #B30B29",
"k  c #AF122D",
"l  c #B2142E",
"z  c #BD142B",
"x  c #A50A34",
"c  c #A60831",
"v  c #B50B35",
"b  c #BB0B33",
"n  c #B50C39",
"m  c #BC0D3B",
"M  c #B71433",
"N  c #A7153A",
"B  c #9C252D",
"V  c #9C2C35",
"C  c #8F263F",
"Z  c #A5363A",
"A  c #A12E33",
"S  c #CD0A1C",
"D  c #C80A17",
"F  c #D40A16",
"G  c #DB0A16",
"H  c #D30B1B",
"J  c #DC0B1C",
"K  c #CA111E",
"L  c #D5141C",
"P  c #E30B1B",
"I  c #EB0C1D",
"U  c #E8141B",
"Y  c #EC1B1D",
"T  c #FF1A1F",
"R  c #C50B23",
"E  c #CA0A22",
"W  c #C30C2B",
"Q  c #CC0B2C",
"!  c #D40D23",
"~  c #DA0D22",
"^  c #D80D2A",
"/  c #C4112C",
"(  c #C81626",
")  c #DB1325",
"_  c #D3142A",
"`  c #DC122D",
"'  c #D51522",
"]  c #C50C33",
"[  c #CC0F3C",
"{  c #C60D38",
"}  c #D10F3A",
"|  c #D20E33",
" . c #CC143A",
".. c #C61235",
"X. c #D41434",
"o. c #D2163B",
"O. c #D4183B",
"+. c #DB1A37",
"@. c #E30E25",
"#. c #E00F29",
"$. c #E31523",
"%. c #E2142C",
"&. c #ED152B",
"*. c #EC1A2E",
"=. c #E71B2B",
"-. c #FD1B24",
";. c #F1172D",
":. c #F1192F",
">. c #FC1C2B",
",. c #E51C34",
"<. c #EC1933",
"1. c #EE1E3E",
"2. c #E61735",
"3. c #F11E3D",
"4. c #F91C30",
"5. c #D52138",
"6. c #FD262A",
"7. c #EA2433",
"8. c #E72638",
"9. c #F72938",
"0. c #EF2C39",
"q. c #962D45",
"w. c #962C43",
"e. c #983045",
"r. c #B13945",
"t. c #C50E40",
"y. c #CA0F41",
"u. c #C61042",
"i. c #CC1946",
"p. c #D01841",
"a. c #EC1D43",
"s. c #E71D43",
"d. c #F01E41",
"f. c #CB214B",
"g. c #DC2846",
"h. c #C53452",
"j. c #D23A55",
"k. c #D53553",
"l. c #D72F50",
"z. c #F43541",
"x. c #E42941",
"c. c #CB3E62",
"v. c #804354",
"b. c #AD4547",
"n. c #B44E4C",
"m. c #B55354",
"M. c #B7595B",
"N. c #B9504B",
"B. c #BF6059",
"V. c #B85E60",
"C. c #BE686A",
"Z. c #C5665B",
"A. c #EE6D5B",
"S. c #C95274",
"D. c #CB746D",
"F. c #F27864",
"G. c #D4485E",
"H. c #DD8B7B",
"J. c #E68869",
"K. c #E9956C",
"L. c #E38C75",
"P. c #E38D7B",
"I. c #F28772",
"U. c #E4927C",
"Y. c #EA937B",
"T. c #EB9877",
"R. c #F49473",
"E. c #F3947B",
"W. c #F39C7A",
"Q. c #FA9A78",
"!. c #F59B77",
"~. c #F2816D",
"^. c #F2A37C",
"/. c #F4A97C",
"(. c #F9AA7C",
"). c #F8A47A",
"_. c #F9AE7E",
"`. c #AF5682",
"'. c #B795BD",
"]. c #D98B82",
"[. c #E39482",
"{. c #EC9383",
"}. c #E79A84",
"|. c #EB9D82",
" X c #E4948C",
".X c #E59B8C",
"XX c #EA9B8B",
"oX c #E99488",
"OX c #F19380",
"+X c #EA9C95",
"@X c #E78E80",
"#X c #EDA184",
"$X c #ECA48B",
"%X c #EFA88C",
"&X c #EFA887",
"*X c #F1A485",
"=X c #F6AB85",
"-X c #F9AD83",
";X c #F3AC8C",
":X c #F8A888",
">X c #FCB384",
",X c #FDB58B",
"<X c #FEBB8C",
"1X c #FBB688",
"2X c #EBA593",
"3X c #EAAA9A",
"4X c #EAA799",
"5X c #F3AE93",
"6X c #F0AE9A",
"7X c #F5B394",
"8X c #FAB693",
"9X c #FCBA93",
"0X c #F4B59B",
"qX c #F6B89B",
"wX c #F8B99A",
"eX c #F8B79A",
"rX c #EEB19C",
"tX c #E7ACA3",
"yX c #EFB5A3",
"uX c #EEB5A4",
"iX c #EDB5A4",
"pX c #EBB7AB",
"aX c #F1B5A1",
"sX c #F2B6A1",
"dX c #F3BAA5",
"fX c #FCC196",
"gX c #FECA98",
"hX c #FDC697",
"jX c #FFC08A",
/* pixels */
"                                                                                                                                ",
"                                                                                                                                ",
"                                                                                                                                ",
"                                                                                                                                ",
"                                                                                                                                ",
"                                                        gX                                                                      ",
"                                                      <X_.>X(.(.(.-X=X                                                          ",
"                                                    iXrX>X>X(.(.(.(.^.].                                                        ",
"                                          iXiXiXiXyXiXiXhXgX<X<X1X1X*XH.].3XpXyXyX                                              ",
"                                    iXyXyXiXiXaXyXaXyXrXwXgX,X1X,X,X}.].[.aXyXyXyXyXiXiX                                        ",
"                                yXyXyXyXaXaXaXrX3X2X2X.X%XgX9X,X,X,XH.D.].6X3XaXaXaXaXiXiXiX                                    ",
"                              aXyXyX0XaX0X4XXX[.[.}.#X$X7XgXfX8X8X7XH.F.U.}.[.}.2X6XsXaXaXaXaX                                  ",
"                            aXaXaXaX0X2X[.U.#X5X8XqXqXqXqXgXfX8X8X7XP.Y.7X0X7X%X}.[..X6XaX0XsXsX                                ",
"                          aXaX0X0X6X[.U.$X7XqXqXqXwXeXqX5X9XhX0X0X5XH.{.qXqXqXqX8X5X|.[.2X0XsX3X.X                              ",
"                        .X.X0X0X%XH.U.7XqXqXqX7XU.D.m.r.V b.m.m.m.b.V b.Z.H.5XqX0XqXqX%XU.}.2X.X2X0X                            ",
"                      0XrX2X.XXXH.#X8XqX8X$XZ.Z i = = = = = = $ = = = = w i V B.}.8XeX8X$XH.[.7X0XaX0X                          ",
"                      0X0XqX5XL.P.%X8X7XD.B ; w ; = ; # & : : : : # : # = w w = a Z.#X;X;X5XU.$X0X0X0X                          ",
"                      0XqXqX[.Y.;X7XXXn.r r = = * % @ o o X o X . X + @ % & = w w r Z |.8X8X&XY.0XqXqX                          ",
"                    qXqXqX;XL.*X9X8Xn.; w = * & + X . . . . . . . . . . o + & # = w w Z &XeX8XU.|.eXqX0X                        ",
"                    8XqX7X|.L.8X9XZ.r w w # % + . . . . . . . . . . . . . . O % # w r w N.8X8X&XY.7X8X7X                        ",
"                    8X8X7XY.^.9X#Xa = w ; & + . . . o o O O + > + + O O O o X O & * w r t K.<X1XY.;X8XqX                        ",
"                    8X8X;XL.:X,XZ.w w = & @ X o O > , , < , , , , , < < < < 1 > @ * w r w N.,X,XT.*X8X8X                        ",
"                gXgXfXfX,X^.<X1XZ = r = * + < 4 5 5 5 5 6 6 6 6 8 7 q 7 7 7 9 7 3 e $ w w B /.jX;X;XfXfXgXgX                    ",
"                <X-X>X_.-X-X_./.a = r # - 4 7 q 7 9 9 9 9 9 9 q q q q q v.v.v.v.5 c y w w p /.jX<XjX<XjX9XfX                    ",
"                  1X>X>X_._._.K.i w w w s 8 q 7 7 q 9 q v.q q q q q q q v.q q v.0 s h u r t K.jX_.1X,X,X,X                      ",
"                  ,X1X<X>X1XjXK.e w w y n w.w.w.q.q.q.q.e.e.e.e.e.q.e.w.w.w.q.q.w.N W ~ u t K.>X<X<X,X,X9X                      ",
"                  ,X,X,X,X,X<XK.e w t ) ,.=.=.=.*.,.8.7.8.7.8.0.8.0.7.7.7.*.=.=.=.=.$.@.%.y J.1X1X,X,X8X8X                      ",
"                  8X9X9X9X,X9XK.e = y ^ ^ ! ) ! ~ ~ ~ H J G P P P J P G J P J J J ~ ~ ~ ~ R J.<X,X<X8X8XqX                      ",
"                  eX;X;X;X=X=XL.e $ y ^ ^ ! ! ! ! ~ J J J H G G G G G G G G H H H S H E S S A.-X-X;X:X%XqX                      ",
"                      *X^.W./.K.i w g ^ ! ! ! L H H H J J P I I I G G G G G G F H F H @.@.~ A.(.!.^.=X=X                        ",
"                      ,XR.Q.<X!.p w u E u S K ( ( ( L S D D I I U D D L L ' ' ' L S D J @.@.A.>XR.).1X,X                        ",
"                      ,XR.Q.<X^.p w u ! E *.6.9.9.6.6.L J F I I G G G Y 6.6.6.6.6.J D ^ @.@.A.-XR.).<X,X                        ",
"                      ,X!.Q.1X^.p w f E E $.>.>.-.-.-.F G S I I I F F U T T T T T H S ~ @.#.A.>XR.).,X,X                        ",
"                      ,XR.R._.^.p w g E S $.>.>.>.-.-.H G S I @.G F F U T T T T -.H S H @.#.F.-XR.).<X,X                        ",
"                      >XR.R.-X^.B w g E E $.>.>.>.-.-.H ! F I I P F F U -.T -.-.-.L S ~ #.~ A./.I.W.=X:X                        ",
"                      1X!.Q.<X-XB w g E R $.4.>.>.>.>.H H S @.@.P F D I -.-.-.-.-.H E ! #.$.F.-XR.).,X,X                        ",
"                      ,X!.Q.,X/.B w u E E $.>.>.>.>.>.L H S @.@.^ S D U -.-.-.>.>.S S ! #.%.F.(.R.).,X,X                        ",
"                      ,XE.Q.>X-XA w f Q R ) >.>.>.>.>.S S E @.%.~ S K U -.>.-.>.>.H E ! #.` ~.-XR.-X<XfX                        ",
"                      ,XW.Q.,X-XA = f W Q ) 4.>.>.>.) u E S #.#.~ S K u *.>.>.>.>.S E ^ ` ` ~.>XR.:XfXgX                        ",
"                      ,XW.Q.,X-XZ = f Q R _ 4.>.:.K y K S ~ &.&.&.! S D y $.>.>.4.S E ^ ~ ` I.1XR.:X<X9X                        ",
"                      8XW.Q.,X-XZ = f W W S _ ' u y R R ) :.;.;.&.&.! R R y D ' L g E X.l.g.I.,XR.:X,X8X                        ",
"                      8XOXQ.,X,XZ = j Q _ z ( z ( _ R %.:.:.:.:.&.:.:.) R ) ( ( ( N.h.c.'.S.F.;XR.-X9X9X                        ",
"                      8X*XQ.,X,XZ = k X.` 8.8.8.,.` 2.<.<.*.*.<.&.:.&.<.%.,.,.8.8.S.l.c.'.S.I.:XE.:X9X8X                        ",
"                      9X*XE.,X8Xb.= j | ..| ] ..Q | <.<.<.<.<.:.<.*.<.<.%.| Q Q ^ Q Q f.'.S.I.5XE.:X9X                          ",
"                      8X#XE.8XhXn.; d h f g z / W h _ %.1.<.<.<.<.<.<.%.W W / / W g f ..`.r.I.:XE.:XeX                          ",
"                      eX$XE.8XhXn.; d b ] ,.9.0.z.5.W Q %.2.<.<.<.<._ R ..0.9.9.9._ h Q p.p.OX:XY.;XeX                          ",
"                      wX$XE.,X8Xn.- d b h X.3.3.d.z.+.Q W X.2.1.2.| h X.0.z.3.3.3.Q h ] } } OX5XE.;XeX                          ",
"                      0X$XOX7X8Xm.- d b h +.3.3.9.d.0.,.] ] X.| } h | 7.9.3.3.3.3.( h ] } p.OX:XOX7XwX                          ",
"                      0XXXP.%X5Xm.- c b b X.1.1.3.3.1._ ] b } } [ h W ,.3.3.1.3.1.W b ] } p.{.%X@X;X6X                          ",
"                      sX$X{.5X0XM.- d v b +.a.9.a.3.1./ b b } } [ b h X.d.3.d.3.1.W v { y.i.{.$X@X%X6X                          ",
"                      sX2XoX5XwXV.2 x n b X.a.a.1.a.1.h b b [ p.[ b h X.3.a.9.a.1.W b { y.p.oX6XoX7XsX                          ",
"                      aX2XoX7XdXC.2 x n b  .a.a.a.a.a.z { b y.y.{ v b X.3.a.a.a.1...n { y.i.+X3XoX5XsX                          ",
"                      aX3XoX5XdXC.2 N n v O.a.s.a.a.s.b m v y.y.{ v b  .a.a.a.a.s.b v m u.f.+X4XoX5XaX                          ",
"                      aX3XoX5XdXC.2 x n v p.a.s.a.s.s.h m v y.u.t.n v | a.x.a.a.s...v m u.f.+X4XoX6XaX                          ",
"                      pXtX X6XdXC.2 x n v ..O.O.O.O.O.k m n u.u.u.n v z O.o.o. .X.l v m u.f.+X4X X0XpX                          ",
"                      pXtX X6XdXD.- x m M k l l l l l v ..n u.u.{ n  .l l l M l l M m m u.f.+X4X XaXpX                          ",
"                      pXtX4XtXpXD.2 x y.+.g.x.g.l.g.g.5.O.{ t.t.u. .+.g.g.g.l.g.g.+.o.{ t.f.4XtX4XyXpX                          ",
"                      rXiXiXpXdX].V r.c.j.j.j.j.j.j.j.j.j.j.j.j.j.j.j.j.k.j.j.j.j.j.j.j.j.G.4XiXiXiXpXqX                        ",
"                    ).).)./.>X<X,X(.-X>X>X>X-X*X>X>X>X-X>X*X*X^.#X=X,X,X-X=X,X:X#X^.W.#X}.#X&X%X$X&X7X9X8X                      ",
"                                                                                                                                ",
"                                                                                                                                ",
"                                                                                                                                ",
"                                                                                                                                ",
"                                                                                                                                "
};
