/* XPM */
static char *e87359083d3b4155e1f86fff1517932bnW2Bx8rwPf81mbhR[] = {
/* columns rows colors chars-per-pixel */
"64 64 232 2 ",
"   c None",
".  c #2B010F",
"X  c #2E0110",
"o  c #320211",
"O  c #3C0111",
"+  c #3B061A",
"@  c #45061A",
"#  c #5C0113",
"$  c #580116",
"%  c #67010E",
"&  c #71000E",
"*  c #7B000C",
"=  c #6C0113",
"-  c #66001F",
";  c #6B0019",
":  c #7D0015",
">  c #75001D",
",  c #7B001A",
"<  c #740112",
"1  c #470A23",
"2  c #5F022E",
"3  c #510F2A",
"4  c #53122D",
"5  c #5D0334",
"6  c #5A043A",
"7  c #56063E",
"8  c #4A1327",
"9  c #650024",
"0  c #680021",
"q  c #62002B",
"w  c #770020",
"e  c #7B0424",
"r  c #6D0534",
"t  c #6A0639",
"y  c #66063B",
"u  c #770634",
"i  c #731935",
"p  c #63283C",
"a  c #6B2D42",
"s  c #7A2442",
"d  c #793C4F",
"f  c #733649",
"g  c #7B3E51",
"h  c #773E50",
"j  c #6F3145",
"k  c #731E41",
"l  c #7D4253",
"z  c #83000D",
"x  c #830013",
"c  c #88061B",
"v  c #B50715",
"b  c #BA0D1D",
"n  c #B4081B",
"m  c #AE0619",
"M  c #870624",
"N  c #8B1528",
"B  c #921826",
"V  c #830632",
"C  c #8B0732",
"Z  c #960932",
"A  c #931633",
"S  c #AA0D2B",
"D  c #A70E27",
"F  c #B60B29",
"G  c #B61027",
"H  c #A30934",
"J  c #AD0B34",
"K  c #B40B35",
"L  c #BC0E34",
"P  c #B50C39",
"I  c #BB0E3C",
"U  c #BB1137",
"Y  c #8A2D3B",
"T  c #872038",
"R  c #922637",
"E  c #A53439",
"W  c #CB0A14",
"Q  c #CC0B1D",
"!  c #C30A1B",
"~  c #D40A16",
"^  c #D30B1B",
"/  c #DA0D19",
"(  c #CB121E",
")  c #EC0D1B",
"_  c #E40D1C",
"`  c #E7131C",
"'  c #FB151D",
"]  c #F2161D",
"[  c #F00E1A",
"{  c #C50B25",
"}  c #CC0B23",
"|  c #C40B2A",
" . c #CC0D2B",
".. c #D30C25",
"X. c #DC0E26",
"o. c #D10E2C",
"O. c #DB0E2A",
"+. c #D91426",
"@. c #C40D36",
"#. c #C10E3D",
"$. c #CD0F3A",
"%. c #CD0E34",
"&. c #D30D31",
"*. c #C31134",
"=. c #C91336",
"-. c #CC133A",
";. c #C8133C",
":. c #DB1D3B",
">. c #D51A36",
",. c #CC1227",
"<. c #E30D23",
"1. c #E31422",
"2. c #E8152A",
"3. c #F41925",
"4. c #FE1B25",
"5. c #F31A2B",
"6. c #FB1C2C",
"7. c #F61723",
"8. c #EA1835",
"9. c #E5183D",
"0. c #E91839",
"q. c #E41737",
"w. c #F41C31",
"e. c #F81C33",
"r. c #DD223D",
"t. c #E5253B",
"y. c #F72D37",
"u. c #FB3336",
"i. c #F02226",
"p. c #872C43",
"a. c #952C44",
"s. c #982F45",
"d. c #963948",
"f. c #8D3445",
"g. c #B73946",
"h. c #AF2C54",
"j. c #A93D62",
"k. c #C40F41",
"l. c #C51141",
"z. c #C91242",
"x. c #C41C43",
"c. c #D71641",
"v. c #E21A41",
"b. c #EA1D46",
"n. c #DE2541",
"m. c #D92A46",
"M. c #D6314D",
"N. c #CC385B",
"B. c #CE304D",
"V. c #E42842",
"C. c #F23144",
"Z. c #804353",
"A. c #9C434C",
"S. c #AA4748",
"D. c #B04948",
"F. c #B6524C",
"G. c #A34C54",
"H. c #BA5853",
"J. c #A7525C",
"K. c #A95A63",
"L. c #A94A71",
"P. c #B14266",
"I. c #BE6D64",
"U. c #F94F47",
"Y. c #F9695A",
"T. c #D14E72",
"R. c #CD7364",
"E. c #D67E6E",
"W. c #D47E72",
"Q. c #DE7062",
"!. c #DC8977",
"~. c #D6816F",
"^. c #ED8A6C",
"/. c #E28C78",
"(. c #E5937C",
"). c #EB9C7F",
"_. c #EA9678",
"`. c #F59C75",
"'. c #F29B7B",
"]. c #F8997A",
"[. c #F89775",
"{. c #F48D70",
"}. c #EDA27D",
"|. c #F2A97E",
" X c #FAAC7D",
".X c #F5A67C",
"XX c #FEB67E",
"oX c #B26C96",
"OX c #BC94BC",
"+X c #DC8B80",
"@X c #DE9082",
"#X c #E59582",
"$X c #EB9C84",
"%X c #E69A8B",
"&X c #E79A88",
"*X c #F39D86",
"=X c #E19790",
"-X c #EDA384",
";X c #ECA48C",
":X c #EFA989",
">X c #F5AC84",
",X c #F9AD82",
"<X c #F2AB8C",
"1X c #F3A685",
"2X c #FDB584",
"3X c #FDB58C",
"4X c #FDBB8D",
"5X c #F7B285",
"6X c #EBA492",
"7X c #EEAA96",
"8X c #EBAA9B",
"9X c #F2AE91",
"0X c #F0AF9A",
"qX c #F6B495",
"wX c #FAB693",
"eX c #FCBB93",
"rX c #F3B59E",
"tX c #F5B69B",
"yX c #F6B89B",
"uX c #F9B99B",
"iX c #F8B799",
"pX c #EFB5A3",
"aX c #EEB5A4",
"sX c #EDB5A5",
"dX c #ECB7A8",
"fX c #F2B5A1",
"gX c #F1B4A1",
"hX c #F1B8A2",
"jX c #FEC495",
"kX c #FFCA99",
"lX c #FDC799",
"zX c #FFC48C",
/* pixels */
"                                                                                                                                ",
"                                                                                                                                ",
"                                                                                                                                ",
"                                                                                                                                ",
"                                                                                                                                ",
"                                                                    zX                                                          ",
"                                                                    2X5X X.X X X X9X                                            ",
"                                                                aXaX5XXX X X X.X.X#X                                            ",
"                                                      aXaXaXaXaXaXaXyXkXjX2X2X2X2X@X+X=XaXaXaXaX                                ",
"                                                aXaXaXaXaXaXaXaXgXhXgXkXjX4X3X3X<X/.!.8XaXaXaXgXaXaX                            ",
"                                              aXaXaXgXgXrXrX0X7X6X%X%XjXjX3X3X3X$XE.W.6XrXrXgXgXgXgXhXaX                        ",
"                                          gXgXgXgXtXrX8X6X#X#X#X-X;X<XeXlXeXeXeX*XE.!.&X#X#X%X7XrXgXgXgXgXgX                    ",
"                                        gXgXgXrXtX8X%X(.#X:XqXyXrXyXtXuXkXeXqXiX$X/.*XyXqXqX-X#X#X6XrXgXgXgXgX                  ",
"                                      gXgXtXgXrX;X/.#X9XyXyXyXyXyXyX9XqXkXuXtXtX#X!.<XeXtXtXuXqX<X#X#X0XtXgXfXgX                ",
"                                      rXyXfX0X#X/.:XqXuXyXyX;X!.I.D.E E F.F.H.F.E E H.~.$XqXiXiXyXqX$X(.6X6XrXfX                ",
"                                    rXtXyX6X(.(.<XiXiXqX!.F.N c : : : * : z z z z z z c B D.~.<XiXqXqX(./.;XtXtXtX              ",
"                                  tXtXtXtX#X/.$XqXqX&XS.M < : : * & & % % % % % & * * z z z c E !.<X<XqX-X(.qXtXtX              ",
"                                  tXtXiX<X/.-XqX9X~.T : > , < = # @ O o . X X X O @ # & z z z x B R.wXqXwX(.;XtXtXtX            ",
"                                  tXiXwX#X_.3XiX!.N > , , = # O . . . . . . . . . . . O % & * x x c R.eXwX-X(.qXiXqX            ",
"                                  tXiX<X/.-XeX-XR > > > = $ . . . . . . . . . . . . . . o $ < * x : B (.iX3X_.-XiXiX            ",
"                                  wXiX-X/.3X3XH.w w > ; $ X X X o o + @ @ @ @ 1 + @ + o . X # & x x : D.wXwX*X).wXwX            ",
"                                  iXwX)._.3X-XT > w ; ; O . + @ 1 3 3 4 4 3 4 4 4 4 4 4 4 8 @ = < : : N _.eX>X_.wXiX            ",
"                            kXjXjXeXjX1X>XeXE., e > ; $ 8 p a a a j j j j f f f f d l d d Z.f u , : x , R.jX4X|.4XeXkXkX        ",
"                              5X X5XXX X XXXH.w > ; ; r f d d h h g h h l l l l Z.l l l Z.Z.l i S c , , H.zX4X4XzXeX4XeX        ",
"                              2X2X2X2XXXXXXXD.> > ; M p.h h h h g l g Z.l Z.l Z.l Z.l Z.l l l k J F M , F.XXXX2X2X3X3X3X        ",
"                              3X4X2X4X2X2X2XD.> > M P A a.p.a.a.a.s.a.a.s.s.s.s.s.a.a.a.a.a.a.A I L #.M D.2X2X2X3X3X3XwX        ",
"    W W 2.2.2.3.               X3XeX3X4XjX4XS.> e H :.n.c.n.r.n.n.n.V.n.m.V.V.n.t.r.t.:.r.:.:.:.:.$.z.J S.XX3X3X3X3XeXiX        ",
"    W W <.2.3.3.6.7.7.7.7.' ' u.U.U.Y.Y.Y.{.g.c M P I I I I I #.I I I #.#.@.@.#.#.@.#.L @.@.@.#.#.I I L D.2X4X3XeXwXiXiX        ",
"    W W X.X.( ^ ^ / ` ` ] ] ' ' ' ' ' ] 3.6.3.2.2.%.t y y t t t t t t t r r r r r r r r r r r r r r r r p.}.>X>X1X<XqX          ",
"    W W X.X.Q +.X...W W W ~ [ [ ~ ~ ~ / ^ _ 1.` 2. .y 7 7 7 7 7 6 7 6 6 7 7 6 7 6 6 6 6 6 6 6 5 5 6 5 5 s _..X`.1X>X            ",
"    W W X.X.Q i.u.u.u.i./ ~ [ ) ~ ~ _ / +.( ( b Q  .t 6 6 7 6 7 6 7 6 6 6 6 5 6 6 6 6 6 5 5 5 6 6 5 5 6 s }.].[.,X4X            ",
"    v ! X.X.! ` 4.' 4.] ~ ~ [ ) ~ ~ i.u.u.u.i.+...o.t 6 6 6 y 6 5 6 6 6 5 6 6 5 5 6 5 5 6 5 6 5 5 6 5 5 s |.`.[.2X3X            ",
"    v v +.O.! ` 6.7.4.] ~ ~ ) ) ^ W ` 4.4.4.3.Q } o.r 6 6 5 6 5 6 6 6 6 5 5 5 5 5 6 5 6 5 6 5 5 5 5 5 5 s |..X[.2X2X            ",
"    v v ..O.Q 1.4.4.4.] ^ ^ <.<.^ ^ ` 4.4.6.3.} .. .r 6 5 6 5 6 5 5 5 6 6 y 6 5 5 5 5 5 5 5 5 5 5 5 5 5 s |.`.[.2X3X            ",
"    v v ..O.! 1.6.4.4.7.^ ^ <.<.^ Q ` 4.6.6.5.^ } &.u 5 6 5 5 6 6 5 6 5 5 5 5 5 5 5 5 5 5 2 5 5 5 5 2 5 s .X_.{.1X>X            ",
"    v v o.O.} 1.6.6.6.7.Q Q <.<.^ Q 1.4.6.6.5.} } o.r 6 5 6 5 5 5 5 5 5 5 6 5 5 5 2 5 5 5 5 5 2 2 2 5 2 p.>X[.[.,X3X            ",
"    m m o.O.{ X.6.6.6.5.Q Q X.1...Q 2.6.6.5.5.} | &.u 5 5 5 5 5 5 5 5 5 5 5 2 5 y 2 5 5 5 2 5 2 2 2 2 2 p.>X`.[.3X3X            ",
"    m m o.&.{ <.6.e.6.3.! } O.O.} Q 1.6.6.w.w.{ | &.u 5 5 5 5 5 5 q 5 5 5 2 5 2 5 q 2 2 2 2 2 y 2 2 2 2 p.>X`.[.3XeX            ",
"    b F  .&. .+.w.w.5.n { } O.O.} { ! w.e.e.w.} | &.u 5 5 5 5 5 5 q q 5 q 5 2 2 q 5 2 q q 2 q q q q 2 2 p.5X`.].4XkX            ",
"    n n  .&.| +.e.5.b G { o.2.2...{ G ! w.e.w.{ | &.u 5 y 5 q 5 q 5 5 q 5 2 2 2 5 q q 5 q q q q 2 q q q f.4X`.`.4XjX            ",
"    D S ;.N.*.b b m n | ,.8.8.8.8.,.| n G 2.+.{ | $.u 5 2 2 q q 5 q 5 q q q y q 2 q q 2 q q q q q q q 9 f.3X'.].3XwX            ",
"      P.P.OXN.B.B.r.=.,.q.8.8.8.8.8. .| G G G G | $.V 2 q 2 5 q q q q q q q 2 2 q q q q q q q q q 9 2 2 d.<X'.[.wX3X            ",
"      oXP.OXN.T.T.n.>.q.8.8.8.8.8.8.q.&.t.V.V.t.>.%.V 2 q q 5 q q q 5 q q q q q q q q q q q q q q 9 9 9 d.<X'.*XwXwX            ",
"      L.j.oXU L #.@.%.q.q.8.9.0.0.0.0.:.$.$.-.-.$.$.V 2 2 q q q q q q q q q q q q 9 q q 9 q 9 q 9 q q 9 d.3X'.].eXwX            ",
"      j.h.L.I L @.L K %.9.9.9.9.0.9.9.@.F K F K K #.V 2 q 9 q q q q q q q q q 9 9 q q q 9 r q 9 q q 9 9 A.3X$X*XwXiX            ",
"      K L #.*.q.y.y.t.L %.9.9.9.9.0.@.I t.t.t.>.K k.C q q q q q q q q q q 9 q 9 9 q 9 9 9 9 9 q 9 9 9 9 d.wX'.*XwXiX            ",
"      S I z.K >.b.V.C.:.L @.v.v.v.#.L n.C.V.t.=.K k.C q q q q 9 q 9 q 9 9 9 r q 9 9 q 9 9 9 9 9 9 9 9 9 d.wX).*XwXtX            ",
"      S K z.K -.b.b.b.C.:.K $.z.;.K q.C.b.b.b.=.K k.C q 9 9 q 9 q q 9 9 9 9 9 9 q 9 9 9 9 9 9 9 - 9 9 - A.wX$X*XiXtX            ",
"      S P z.P -.V.b.b.b.=.K k.l.I U >.b.b.b.b.=.K k.V q q 9 q 9 9 9 9 9 9 9 9 9 9 9 9 0 9 0 - 9 9 - - - j.9X_.$XqX0X            ",
"      H P z.I -.b.b.b.b.L P k.l.I P *.V.b.b.b.=.K k.C 9 9 9 9 9 9 9 9 9 9 9 0 0 9 0 0 0 - 0 0 0 - 9 0 - G.0X#X$X7X7X            ",
"      H P z.I =.b.b.b.b.@.P #.l.#.P L b.b.b.b.-.K l.Z 9 9 9 9 0 9 9 0 9 9 - 0 0 - - 0 0 0 0 0 0 0 0 0 - G.rX%X*XiXfX            ",
"      H P #.P =.b.b.b.b.@.P k.l.I K *.b.b.b.b.-.K #.C 9 9 0 9 0 0 0 0 0 0 0 0 0 0 0 0 0 0 0 0 0 0 0 0 - G.gX%X6XfXfX            ",
"      H P l.I =.b.b.b.b.*.P #.z.#.P L b.b.b.V.=.K l.Z 9 - - 0 0 0 0 0 0 0 0 0 0 0 0 0 0 0 0 0 0 0 0 0 - J.fX%X*XhXgX            ",
"      H P l.P =.b.b.b.b.L P I z.#.P L b.b.b.b.-.K #.Z 9 0 0 0 0 0 0 0 0 0 0 0 0 0 0 0 0 0 0 0 0 0 0 0 - J.gX%X6XhXgX            ",
"      H P l.P U v.v.b.:.L P #.z.l.P L v.v.v.v.*.P l.Z 0 0 0 0 0 0 0 0 0 0 0 0 0 0 0 0 0 0 0 0 - 0 0 0 - K.aX=X6XhXdX            ",
"      H P k.P J D D S S S I I z.#.I S S S S S S P I Z 0 0 0 0 0 0 0 0 0 0 0 0 0 0 0 0 0 0 0 0 9 0 0 0 - K.gX=X6XaXdX            ",
"      H P l.>.r.n.M.M.V.t.r.#.z.k.>.:.n.m.m.n.v.>.#.Z - - - - - - - - - - - - - 9 - - 0 - - - - - - - - K.dX8X8XdXdX            ",
"      H J l.z.z.z.z.z.z.x.z.z.z.x.B.m.B.B.B.B.B.B.M.g.Y Y Y Y Y Y Y Y Y Y Y Y Y Y Y Y Y Y Y Y Y Y Y Y Y I.sXsXaXdXdX            ",
"                                ^.^.^.{.[..X,X X,X,X5X5X5X|.|.>X5X5X>X1X}.}.}.}.>X5X5X1X<X3X-X}.).).-X&X;X:X:X:X<XwXeX          ",
"                                                                                                                                ",
"                                                                                                                                ",
"                                                                                                                                ",
"                                                                                                                                ",
"                                                                                                                                "
};
