/* XPM */
static char *ed43b3ab25084c33b29f3cc141dad5ebLnBFvn2QjZuzRwpV[] = {
/* columns rows colors chars-per-pixel */
"64 64 161 2 ",
"   c #3F0717",
".  c #3F0718",
"X  c #48070F",
"o  c #440715",
"O  c #490713",
"+  c #450815",
"@  c #480914",
"#  c #420618",
"$  c #440818",
"%  c #660D07",
"&  c #680E07",
"*  c #650D0C",
"=  c #690E0A",
"-  c #681009",
";  c #630C10",
":  c #8C310F",
">  c #872F16",
",  c #8B2E12",
"<  c #8A2F12",
"1  c #8B2F12",
"2  c #8A2E13",
"3  c #8A2F13",
"4  c #8B2F13",
"5  c #8A2F12",
"6  c #8D2F10",
"7  c #8C2F11",
"8  c #8D2F11",
"9  c #8E2F10",
"0  c #8E2F11",
"q  c #8C2F12",
"w  c #8D2F12",
"e  c #8C2F13",
"r  c #8D2F13",
"t  c #882F14",
"y  c #892F14",
"u  c #892E15",
"i  c #882F15",
"p  c #8A2E14",
"a  c #8B2E14",
"s  c #8A2F14",
"d  c #8B2F14",
"f  c #8A2E15",
"g  c #8A2F15",
"h  c #8B2F15",
"j  c #882F16",
"k  c #892F16",
"l  c #882E17",
"z  c #882F17",
"x  c #892F17",
"c  c #8A2F16",
"v  c #8B2F17",
"b  c #8C2F14",
"n  c #8D2F14",
"m  c #8D2F15",
"M  c #8C2F16",
"N  c #8B2F13",
"B  c #872E19",
"V  c #872E18",
"C  c #882F19",
"Z  c #8B2E18",
"A  c #892F18",
"S  c #873114",
"D  c #8B3010",
"F  c #8B3110",
"G  c #8B3011",
"H  c #8B3211",
"J  c #883112",
"K  c #883113",
"L  c #8A3012",
"P  c #8B3012",
"I  c #8A3013",
"U  c #8B3013",
"Y  c #8C3010",
"T  c #8D3010",
"R  c #8C3110",
"E  c #8D3110",
"W  c #8C3011",
"Q  c #8D3011",
"!  c #8C3111",
"~  c #8D3111",
"^  c #8E3110",
"/  c #8E3011",
"(  c #8C3012",
")  c #8D3012",
"_  c #8C3112",
"`  c #8C3013",
"'  c #8D3013",
"]  c #8E3013",
"[  c #883014",
"{  c #893014",
"}  c #883015",
"|  c #8B3014",
" . c #8A3015",
".. c #8B3015",
"X. c #893016",
"o. c #893017",
"O. c #8A3016",
"+. c #8B3016",
"@. c #8A3017",
"#. c #8C3014",
"$. c #8C3015",
"%. c #8D3011",
"&. c #873119",
"*. c #8A3018",
"=. c #8A3019",
"-. c #8A301A",
";. c #893118",
":. c #954715",
">. c #974715",
",. c #954716",
"<. c #974616",
"1. c #974716",
"2. c #974617",
"3. c #974717",
"4. c #954716",
"5. c #984715",
"6. c #994716",
"7. c #9A4716",
"8. c #9A4717",
"9. c #994715",
"0. c #974911",
"q. c #974912",
"w. c #964813",
"e. c #974813",
"r. c #964913",
"t. c #974913",
"y. c #964A13",
"u. c #934916",
"i. c #954815",
"p. c #974914",
"a. c #964815",
"s. c #974A15",
"d. c #954816",
"f. c #954817",
"g. c #964816",
"h. c #974817",
"j. c #974814",
"k. c #994913",
"l. c #984814",
"z. c #994914",
"x. c #984815",
"c. c #9A4814",
"v. c #994816",
"b. c #984917",
"n. c #984814",
"m. c #954718",
"M. c #96471A",
"N. c #96471C",
"B. c #954719",
"V. c #984518",
"C. c #994519",
"Z. c #99451A",
"A. c #994618",
"S. c #954818",
"D. c #964818",
"F. c #974818",
"G. c #94491B",
"H. c #96481C",
"J. c #95481A",
"K. c #984819",
"L. c #984819",
/* pixels */
"k.k.k.k.k.k.k.k.k.k.c.k.k.v.O # + k.k.k.k.k.k.k.k.k.k.v.+ = 5.k.k.k.h.+ o # H v.k.k.k.k.k.k.k.k.* + ; + o   # + k.k.z.z.k.k.k.k.",
"Y Y Y Y 9 : : 9 6 : Y Y : Y i + K.Y : Y Y Y Y : Y Y Y Y M 6 : 6 Y Y Y Z # * 5.Y 6 : Y Y Y Y Y Y V.= * * * o # G.: : Y Y Y Y Y Y ",
"Y ] Y Y Y ] ] : Y Y Y Y Y 6 3 + v.Y ] Y Y Y ] Y Y ] Y Y Y ] Y Y Y Y ] Y # @ * 6 : 0 Y ] Y ] Y ] 9 V.* = V.* + v.: Y Y ] Y ] Y ] ",
"] Y Y Y ] Y : ] Y Y $.] Y 6 i + Y ] Y ] Y ] Y ] ] Y ] Y ] $.Y Y Y Y Y 6 + Z Y Y ] Y ] Y Y Y ] Y 6 = * C.: i + 3 Y Y Y Y ] Y ] Y ",
"Y ] Y ] Y ] ] Y 6 6 6 6 Y Y M + 5.Y ] Y 6 6 6 6 Y ] Y ] Y ] Y $.] Y Y 3 $ * 6 6 Y Y Y ] Y ] Y Y Y 5.8.Y Y $.o o K.] Y Y : ] Y ] ",
"] Y ] Y ] Y Y ] Y 6 6 , ] Y * + Y Y Y ] $.6 M 6 ] Y Y Y ] Y 6 6 Y Y Y H # @ 6 $.M Y ] Y ] Y ] Y Y Y Y Y Y $.+ H.: Y ] Y 9 Y Y : ",
"Y Y $.Y Y Y ] Y M 6 , * p * * o i Y X.6 Y M = * Y M ] Y Y Y M = M 9 : X.# o i $.= 6 Y Y Y Y 6 Y Y Y Y M = Z + i Y Y Y M.Y Y ] Y ",
"$.$.$.$.$.$.$.*.* * * # * * # # + ; @ * * * o + * * $.$.$.$.M @ = M *.+   o * Z + Z = $.*.$.M i $.$.*.* # + # + *.$.*.@ + *.X.@ ",
"+ + @ + + + @ + # # + + + + # # + + # + + + + # + # + + + + + + + + + + + # + + o + + + + + + o + + + + # o + + @ # $ + # o # o ",
"e.q.v.v.k.h.h.+ # @ h.v.M.+ >.V.+ k.k.k.e.e.k.k.5.>.+ # + k.k.v.5.q.q.5.k.k.k.q.q.h.q.e.h.>.+ o o M.k.k.k.q.q.k.k.v.q.h.+ # + F.",
"6 6 Y ] 9 Y Y H.@ >.Y Y Y K.Y Y 5.Y Y ] 6 6 Y Y 6 6 i + >.6 ] Y Y v.: 6 $.8.Y Y ] Y 5.Y 6 6 p + 5.: ] Y Y 5.Y ] Y Y Y v.t + X.: ",
"Y 6 Y Y Y Y $.= # 5.Y Y Y Y $.Y : : ] Y 6 6 $.] Y 6 H + h.Y Y $.Y Y Y Y Y Y Y Y Y Y Y 6 6 6 i + v.Y Y Y Y Y Y Y Y Y ] Y 3 + 3 H ",
"Y Y ] Y M 6 6 ; + k.] Y Y Y ] Y Y ] Y ] ] Y ] Y Y $.$.+ q.Y Y Y Y $.] : ] : Y Y ] Y Y ] Y ] M + k.Y ] Y Y ] Y ] ] Y ] Y D o 6 6 ",
"Y ] Y ] 6 6 6 * + k.: ] Y ] Y ] ] Y ] Y Y ] Y Y Y Y 3 @ h.Y Y Y ] Y Y ] Y 0 $.Y Y ] ] Y ] Y i + v.Y Y ] ] Y ] Y Y ] Y $.3 + i 6 ",
"] Y ] Y 6 6 , * + 5.] Y ] Y ] Y Y ] Y Y ] Y 6 M $.Y H + h.Y Y 6 Y ] Y Y ] Y ] 6 ] Y ] ] Y Y $.+ ] Y ] Y Y ] ] Y ] : Y Y 6 + i 6 ",
"Y : ] $.6 a * + + i Y Y Y ] Y ] ] Y Y ] 6 6 = M Y 6 i + X.Y Y 6 Y Y $.] Y Y 6 = Y Y Y Y ] Y $.+ $.Y Y Y Y Y Y 6 Y 6 6 6 i + i Y ",
"Y Y X.= i = ; o o + t Y 3 i * * i 3 Y X.* o + * * * # # # , H H 3 3 = i 3 Y 3 o * 3 i * = i + # + 3 6 $.H 3 3 = i 3 + * + o + t ",
"@ + + + + + # # # o + # + + + + + + + + + # o + + + + + + + O # # o + + + + + + + + + + o + + # + + + # # # # + + + # + o # + + ",
"F.h.h.q.h.q.q.q.h.q.M.+ o + m.h.>.@ F.h.q.h.h.q.h.q.q.v.>.h.:.o o + G.h.k.q.v.h.>.>.q.e.q.q.v.h.h.K.F.+ o o + K.h.q.h.h.e.e.h.h.",
"Y Y : k.: : h.: Y Y 6 M o G.Y : 3 6 H >.q.: 5.H Y Y 6 Y 3 9 3 3 o q.: 6 H 6 6 : D H e.H k.k.: : : Y Y i + + M.] : Y k.: 3 D : : ",
"] Y 0 Y 6 Y Y Y Y ] Y 6 + v.] Y Y : ] : H Y Y Y Y Y Y Y ] Y $.Y o h.3 : Y Y ] Y 6 Y Y Y ] : Y ] Y Y Y 6 + V.Y $.0 : ] Y : Y Y Y ",
"Y ] Y : Y Y $.Y 0 : ] Y @ v.Y Y ] ] Y ] 6 6 Y Y ] Y Y ] Y ] Y 0 o m.= 6 : ] Y ] Y Y ] Y Y ] ] Y Y Y Y 3 $ F.Y Y Y ] Y Y 6 Y $.Y ",
"] Y : ] Y ] Y ] Y ] 6 i + h.Y Y Y ] 0 Y ] Y Y $.Y ] : ] ] Y Y M # + Z 3 ] Y Y ] Y ] Y ] ] Y Y Y 6 Y Y M $ + M Y ] Y Y ] Y ] Y ] ",
": ] ] Y ] Y ] Y ] Y M + o 5.Y Y 0 : : ] Y ] Y ] ] Y 0 : 9 ] Y 6 o * Z & M Y 9 Y ] Y ] Y Y ] Y 6 = M $.6 $ + 6 6 : ] 0 : ] Y ] Y ",
"] Y Y Y : Y Y Y $.Y M * o S 6 6 Y Y Y ] 6 M 6 Y Y M & i i 6 6 i o o * i * i 6 6 6 i $.Y i Y : : >.= * t + B M H 0 ] 6 Y Y Y Y Y ",
": 6 Y Y 3 : Y Y Y i * + # O t 3 Y Y $.Y 6 6 6 X.Y Y i O + 3 i @ o   o > o * @ i H * O * = M 3 D H m.o o o + + + X.: 3 3 M Y Y $.",
"+ + # + + + + + o o o o + o + + + + + # + + + + + + # + o o + o o o   o # o + + + o o o # + + + # o o o o # + o + + o o o + + + ",
"h.q.v.V.h.h.h.v.k.h.5.e.V.* * * * + # + ; * * * * * * * * * * = M.:.o o + M.M.>.q.v.q.v.>.h.h.h.h.>.q.h.h.h.v.K.v.>.+ # $ F.h.h.",
"H v.c.Y Y Y : Y : k.Y Y Y $.6 6 a Z + u.3 6 6 M M M 6 M 6 M 6 M Y $.Z @ u.Y Y Y Y k.k.Y : v.Y Y 6 Y k.: Y Y Y Y Y Y Z @ h.Y 3 Y ",
"Y Y Y ] ] Y ] : Y 6 ] Y ] Y ] : 6 i o e.Y Y : ] 6 6 ] Y Y Y 0 : Y Y Y $ e.6 Y Y ] Y Y Y Y Y ] Y Y Y Y Y Y ] ] Y Y 6 H @ q.H Y Y ",
"Y Y ] Y Y ] Y ] Y Y Y ] Y ] Y ] 6 Z o e.Y $.] Y 6 6 Y ] Y ] Y ] Y Y Y $ v.M $.Y : 0 : ] ] : : 0 Y ] Y Y ] Y ] Y Y $.X.+ v.Y Y Y ",
"Y Y Y ] ] Y ] Y Y Y ] Y ] Y ] Y 6 + o q.Y Y Y ] 6 M Y Y ] Y ] Y ] Y Y + v.Y Y Y ] : ] Y ] Y ] : ] Y ] $.Y ] Y ] Y Y 6 + h.Y ] Y ",
"] Y ] Y Y ] $.Y ] Y ] $.Y Y 6 Y i * + e.Y 6 Y 3 6 & 6 $.Y Y Y Y Y Y M # o M 6 6 ] Y ] : ] : ] : 6 Y Y Y $.Y Y Y ] Y t o o M 6 6 ",
"Y ] Y ] ] Y Y Y : ] Y Y $.Y = M a p + i Y M 6 = = M $.Y $.Y M 6 M M * o i 6 6 6 Y ] : ] Y 0 ] ] 6 M Y $.Y Y Y ] 6 M * o * i Y 6 ",
"Y Y Y Y Y Y Y Y 6 Y Y Y Y Y X.= * + o + Z = * o ; = $.Y Y Z O i = * o # o X.Y $.Y $.Y Y Y Y Y $.* @ $.Y Y Y Y X.= * + o + * X.Y ",
"$ $ $ + + $ + + + # # # @ $ + + + + + # + + + # o # @ + + + + + + @ + + + # # o $ + $ + @ $ $ $ + # @ $ $ o # o + + + o + + # + ",
"k.k.k.q.F.+ h.h.V.+ # + h.q.q.h.e.e.e.e.k.5.>.+ . o >.>.k.e.e.q.q.h.h.v.M.+ o + F.v.q.q.q.v.q.k.5.e.k.e.>.o o + F.q.q.k.e.M.+ >.",
"] ] 6 3 O H.Y Y Y X.+ F.: ] 6 Y 5.6 6 6 Y ] Y *.+ N.Y 6 : ] Y v.Y Y v.Y Y $.+ M.Y Y v.q.k.Y 5.: 6 6 Y ] Y M + F.H Y k.v.6 Y K.Y ",
"] Y Y Y 5.Y Y Y 6 3 + h.] : ] Y Y ] 6 Y ] Y 6 $.+ k.Y Y : 0 Y : Y Y Y Y Y Y + F.Y Y ] Y Y 6 ] : Y Y ] Y ] 3 + v.6 Y Y : Y ] Y Y ",
"Y Y Y Y $.Y Y 6 6 3 o q.Y ] Y ] ] Y $.Y Y Y Y M + v.Y Y ] Y ] ] Y Y Y $.Y Y # X Y ] Y Y Y Y Y Y Y ] Y ] ] 6 + v.Y Y ] Y ] Y ] Y ",
"] Y 6 Y ] Y ] : 6 6 + h.Y Y Y Y Y ] ] Y ] Y ] Y + e.6 6 M 6 ] Y $.Y ] Y 9 3 + M.Y 6 6 Y Y ] Y ] : ] Y ] Y i + h.Y Y ] : 0 Y ] : ",
"Y ] : ] Y ] : ] 6 3 o i Y 6 Y X.Y Y Y Y Y ] Y Y + 6 6 6 Y 6 Y ] Y ] Y ] 3 H + + X.H Y Y ] Y ] Y 6 Y ] Y ] H + h.Y Y Y ] Y ] Y 0 ",
"] Y ] : 0 : 0 Y 6 3 o H Y Y Y O $.6 6 6 Y ] $.$.o 6 i H Y Y Y Y Y Y ] Y 3 : o   o + *.Y Y ] 6 6 Y ] Y Y ] 6 o 3 Y Y ] Y Y Y ] Y ",
"Y ] Y ] Y ] Y ] 6 i + 3 ] Y ] V.@ * i M ] Y Y M + i o J M 6 0 ] Y = Y ] 6 t o * 5.V.Y Y Y Y M 6 Y 6 M 6 i = o * M M Y ] 6 6 9 ] ",
"$.Y Y Y ] 6 M 6 H +   o 3 3 M H h.+ + * 6 $.t + # + o ; * = 3 H *.@ * i i o o o * Y 3 6 6 i M 6 6 * @ B * + # o Z = Y i = * = i ",
"+ $ + # + + o # + # + o o o o # o # o + + + + + # o + X o # o # + + + + + + # o + #   o # + o + + o o + o o o o o + + + # + o o ",
"v.h.>.+ G.# o + F.h.>.>.+   # + h.h.h.h.k.v.h.q.v.h.h.m.+ o + F.5.K.v.h.e.v.V.= * * # o + * * * * * * * = * M.F.h.q.h.h.h.>.+ # ",
"6 : 3 H : h.h.F.O X.6 6 i + F.>.H : Y 6 : Y k.v.Y Y Y Y i o m.Y 6 Y : 5.Y Y Y Y 6 i + + M.6 6 i 6 6 , , M 6 6 Y Y Y Y Y Y 6 i + ",
"Y ] Y ] Y Y Y ] K.Y ] : Y + h.Y Y ] Y ] Y ] Y Y ] : ] : 6 o >.9 Y : ] Y ] Y ] Y 6 6 Z @ k.Y Y ] 6 M 0 6 ] : ] : ] : ] Y ] Y 6 # ",
"Y Y ] Y ] Y ] Y Y Y Y ] Y + v.Y Y ] ] Y ] Y Y Y Y ] : ] 3 o >.D ] ] Y 9 : ] Y ] 6 6 i + >.Y ] Y 6 6 ] Y Y ] : ] : ] Y Y Y ] M + ",
"Y 0 Y ] ] Y Y Y ] Y ] Y 3 o h.: ] Y $.Y : 6 Y ] ] Y 0 Y 3 + >.Y Y ] ] : ] : Y $.Y $.H + o Y Y ] : ] Y ] ] Y ] Y 6 Y ] 6 6 i O o ",
"] : ] Y Y Y $.Y Y ] Y ] 3 o H Y Y Y Y Y ] : ] Y Y M Y 6 6 o H Y ] : Y ] Y 0 Y Y Y 6 i + * $.$.Y 0 Y ] Y Y ] Y Y Y ] : 6 6 6 * o ",
"Y ] Y Y Y Y Y Y Y 6 6 D * o * i 6 6 6 6 Y Y Y Y M = p * , o i 6 : Y Y Y Y Y Y Y M ; + + i 6 Y Y ] : 6 Y Y Y Y Y Y 3 t = M Y i + ",
"$.Y X.H $.$.H H $.i = * o o o * * , 3 6 Y $.X.X.= o * o o   + t 6 $.$.$.H H $.= = + # o + H X.Y $.Y H H $.$.X.H i * * X * i o o ",
"+ # + # # + + # + + # + o o o # # o + # + + o # o o o   # o o o + + + + # + + # + # o o # # # # @ + + + + + # + + + + + + + + o ",
"M.O F.+ # + h.q.h.k.h.q.h.>.* * * * * * * * o . o * * % * e.e.q.h.q.h.v.q.h.q.q.q.h.q.h.q.+ # + F.h.h.q.q.h.k.y.q.h.h.h.q.h.q.h.",
"Y $.Y i O H.Y Y : : Y Y Y Y ] Y Y ] $.M M = * o N.$.Y ] Y : : 8.: : Y Y Y Y Y Y Y 7.Y Y Y *.@ H.Y Y : c.v.Y : Y : Y Y Y Y Y v.: ",
"Y Y Y 6 + v.Y Y Y Y Y ] ] Y Y ] ] Y Y 6 & >.>.o + 6 ] : ] ] Y Y Y Y Y ] ] Y Y ] Y Y 6 Y Y M + v.Y Y Y Y Y Y 6 Y Y Y ] Y Y 0 ] Y ",
"] Y Y 3 + v.Y $.Y Y ] Y ] Y ] Y Y ] Y Y 5.: 6 + v.Y : ] Y ] Y ] Y Y ] Y : ] ] : Y M % M $.i + v.Y Y Y ] Y ] 6 M Y ] Y ] : ] Y ] ",
"Y ] : H + h.Y Y Y Y Y ] Y ] Y ] ] Y $.Y Y Y 3 + M.Y ] Y ] Y ] Y Y Y Y ] ] Y ] Y 6 Y 5.% @ Z @ v.Y Y ] Y ] Y 6 6 Y Y ] Y 6 : ] Y ",
"] Y M X.+ h.Y Y 6 6 9 9 ] Y Y 0 , 6 6 6 6 3 2 o + M Y Y 6 $.Y ] Y Y M 6 : ] : ] 6 6 H V.* + o M.Y Y Y ] 6 3 6 6 $.Y Y 6 Y ] Y ] ",
"Y $.= o o B Y Y H 6 H 3 : Y $.= @ i M 6 6 3 * # + i ] Y 6 6 Y Y Y Y Y 6 ] : 6 : M 6 i * * * o * $.Y $.$.* * p M Y Y Y 6 ] Y Y : ",
"* + + o o o t i * i 3 3 3 3 Y M.; o o t * * o   + p Y M * 3 $.Y $.Y 3 6 3 3 Y i * * o o   o o # i * * * + * * O X.Y 3 3 3 i = M ",
"o   o     o + o + + + + + + + + o . o o o o o o # + + + + @ + # @ # + + + + + + # o     o . o # + o + + o + o # # + + + o + + + "
};
